Coordinates
version=1
nRows=11
nColumns=63
inDegrees=yes

Units are S.I. units (second, meters, Newtons, ...)
If the header above contains a line with 'inDegrees', this indicates whether rotational values are in degrees (yes) or radians (no).

endheader
time	pelvis_tilt	pelvis_list	pelvis_rotation	pelvis_tx	pelvis_ty	pelvis_tz	hip_flexion_r	hip_adduction_r	hip_rotation_r	knee_angle_r	knee_angle_r_beta	ankle_angle_r	subtalar_angle_r	mtp_angle_r	hip_flexion_l	hip_adduction_l	hip_rotation_l	knee_angle_l	knee_angle_l_beta	ankle_angle_l	subtalar_angle_l	mtp_angle_l	L5_S1_Flex_Ext	L5_S1_Lat_Bending	L5_S1_axial_rotation	L4_L5_Flex_Ext	L4_L5_Lat_Bending	L4_L5_axial_rotation	L3_L4_Flex_Ext	L3_L4_Lat_Bending	L3_L4_axial_rotation	L2_L3_Flex_Ext	L2_L3_Lat_Bending	L2_L3_axial_rotation	L1_L2_Flex_Ext	L1_L2_Lat_Bending	L1_L2_axial_rotation	L1_T12_Flex_Ext	L1_T12_Lat_Bending	L1_T12_axial_rotation	Abs_r3	Abs_r2	Abs_r1	Abs_t1	Abs_t2	neck_flexion	neck_bending	neck_rotation	arm_flex_r	arm_add_r	arm_rot_r	elbow_flex_r	pro_sup_r	wrist_flex_r	wrist_dev_r	arm_flex_l	arm_add_l	arm_rot_l	elbow_flex_l	pro_sup_l	wrist_flex_l	wrist_dev_l
3.550000	7.116189	8.431316	89.420119	0.140672	0.671776	0.808492	-7.041405	3.931609	0.273921	6.239168	0.108894	27.989054	10.667976	0.000000	-9.837850	-2.604851	5.963783	1.629431	0.028439	24.565223	-16.137386	0.000000	0.229398	0.143912	-3.397073	0.426014	0.191403	-3.609390	0.376877	0.349909	-3.609390	0.262178	0.349909	-2.972439	0.213019	0.293466	-2.760122	0.131078	0.222920	-2.547805	1.638564	1.627966	-18.893501	0.000000	0.000000	-19.658610	14.486790	16.960538	150.261860	-42.944134	72.873681	76.120205	89.289497	-20.488438	3.175403	153.235861	-12.994605	95.172141	43.752370	69.226676	-6.988968	-10.083110
3.566667	6.882670	8.519550	89.631951	0.141301	0.671553	0.808341	-7.030820	3.751528	-0.103780	6.550790	0.114333	28.172290	10.743838	0.000000	-9.895650	-2.439224	6.053781	1.650562	0.028808	24.528881	-16.071918	0.000000	0.224068	0.085254	-3.419895	0.416116	0.113387	-3.633639	0.368121	0.207286	-3.633639	0.256087	0.207286	-2.992408	0.208069	0.173849	-2.778665	0.128032	0.132058	-2.564921	1.600492	0.964406	-19.020431	0.000000	0.000000	-19.769549	16.088329	16.416762	149.600706	-43.826450	72.011519	76.744606	89.274052	-21.338551	2.452074	152.946273	-13.207743	93.121005	46.202745	73.095325	-7.644413	-10.116441
3.583333	6.682465	8.566132	89.831237	0.141739	0.671354	0.808082	-7.009063	3.593753	-0.407305	6.797086	0.118632	28.310169	10.768020	0.000000	-9.922537	-2.291144	6.117658	1.658188	0.028941	24.438409	-16.046687	0.000000	0.224309	0.036438	-3.438165	0.416564	0.048462	-3.653051	0.368517	0.088595	-3.653051	0.256363	0.088595	-3.008395	0.208293	0.074304	-2.793509	0.128170	0.056442	-2.578624	1.602218	0.412192	-19.122044	0.000000	0.000000	-19.848426	17.481085	15.932890	148.961210	-44.650022	71.088927	77.442291	89.261409	-22.119225	1.749768	152.470808	-13.349220	90.216802	48.149944	77.841725	-8.388504	-9.916348
3.600000	6.549929	8.555875	89.998526	0.141975	0.671178	0.807682	-6.958633	3.490295	-0.598478	6.980102	0.121826	28.393943	10.716725	0.000000	-9.907091	-2.193528	6.195568	1.655233	0.028889	24.299049	-16.122196	0.000000	0.230027	0.003299	-3.458255	0.427183	0.004387	-3.674396	0.377912	0.008020	-3.674396	0.262898	0.008020	-3.025974	0.213603	0.006727	-2.809833	0.131437	0.005110	-2.593692	1.643061	0.037315	-19.233779	0.000000	0.000000	-19.856664	18.607226	15.556214	148.406490	-45.347441	70.154224	78.192284	89.247964	-22.719241	1.290110	152.084240	-13.400890	87.629671	49.329643	81.272647	-8.915523	-9.839677
3.616667	6.485719	8.493494	90.136696	0.141990	0.671062	0.807172	-6.885778	3.441855	-0.736992	7.091153	0.123764	28.424110	10.671515	0.000000	-9.848613	-2.147631	6.169288	1.648057	0.028764	24.158173	-16.131980	0.000000	0.239544	-0.013443	-3.484754	0.444856	-0.017879	-3.702551	0.393546	-0.032685	-3.702551	0.273774	-0.032685	-3.049159	0.222440	-0.027412	-2.831362	0.136875	-0.020823	-2.613565	1.711036	-0.152067	-19.381155	0.000000	0.000000	-19.799188	19.436397	15.303515	147.942853	-45.881198	69.253819	78.932773	89.233326	-23.233634	0.941103	151.764614	-13.375638	85.464746	49.716606	83.596528	-9.301419	-9.791158
3.633333	6.472373	8.387401	90.244414	0.141816	0.671027	0.806576	-6.795038	3.432131	-0.793330	7.139646	0.124610	28.401427	10.593301	0.000000	-9.758811	-2.136182	6.100876	1.631486	0.028475	23.980294	-16.162226	0.000000	0.252128	-0.017214	-3.511061	0.468227	-0.022894	-3.730503	0.414221	-0.041853	-3.730503	0.288157	-0.041853	-3.072179	0.234126	-0.035102	-2.852737	0.144066	-0.026664	-2.633296	1.800924	-0.194724	-19.527470	0.000000	0.000000	-19.664594	20.000608	15.063184	147.601540	-46.289486	68.424878	79.662835	89.215079	-23.592555	0.770472	151.433760	-13.264226	83.491649	49.345006	85.173344	-9.590637	-9.625432
3.650000	6.497346	8.249865	90.336624	0.141537	0.671028	0.805912	-6.689595	3.450106	-0.961058	7.150499	0.124800	28.377773	10.712948	0.000000	-9.647312	-2.156870	6.034612	1.612353	0.028141	23.802638	-16.208351	0.000000	0.265995	-0.012103	-3.540205	0.493979	-0.016096	-3.761468	0.437003	-0.029426	-3.761468	0.304005	-0.029426	-3.097679	0.247003	-0.024680	-2.876416	0.151989	-0.018747	-2.655154	1.899973	-0.136907	-19.689557	0.000000	0.000000	-19.436266	20.399272	14.823133	147.406523	-46.598346	67.763447	80.332170	89.195493	-23.980949	0.656372	151.318136	-13.021108	82.689608	48.317508	85.129488	-9.771891	-9.490561
3.666667	6.524564	8.110131	90.422197	0.141252	0.671072	0.805199	-6.611943	3.475694	-1.020564	7.106610	0.124034	28.311377	10.718121	0.000000	-9.545423	-2.178807	5.984876	1.588389	0.027723	23.624160	-16.270383	0.000000	0.279808	-0.005637	-3.566026	0.519632	-0.007497	-3.788903	0.459697	-0.013705	-3.788903	0.319793	-0.013705	-3.120273	0.259830	-0.011494	-2.897396	0.159882	-0.008731	-2.674520	1.998642	-0.063762	-19.833168	0.000000	0.000000	-19.143214	20.724553	14.522530	147.300633	-46.860814	67.207212	80.945430	89.178344	-24.261545	0.668874	151.306933	-12.663250	82.541090	46.830660	84.128895	-9.804974	-9.199895
3.683333	6.536181	7.998134	90.500527	0.141058	0.671130	0.804433	-6.591570	3.492371	-1.047823	7.023613	0.122585	28.234975	10.698322	0.000000	-9.486222	-2.190385	5.984155	1.561665	0.027256	23.490053	-16.353124	0.000000	0.289469	-0.002948	-3.582479	0.537573	-0.003920	-3.806384	0.475568	-0.007167	-3.806384	0.330834	-0.007167	-3.134669	0.268801	-0.006011	-2.910764	0.165402	-0.004566	-2.686859	2.067647	-0.033344	-19.924673	0.000000	0.000000	-18.756135	21.042518	14.035024	147.337499	-47.122450	66.834629	81.469676	89.165042	-24.421439	0.824116	151.573770	-12.184059	83.519421	45.050971	81.515268	-9.916091	-9.111547
3.700000	6.498325	7.922991	90.587990	0.141008	0.671221	0.803670	-6.630145	3.468801	-1.100612	6.911389	0.120627	28.155259	10.698237	0.000000	-9.470188	-2.161411	6.016830	1.532419	0.026746	23.355883	-16.444568	0.000000	0.295168	-0.011060	-3.579603	0.548156	-0.014710	-3.803328	0.484931	-0.026891	-3.803328	0.337347	-0.026891	-3.132152	0.274093	-0.022554	-2.908427	0.168659	-0.017132	-2.684702	2.108352	-0.125114	-19.908676	0.000000	0.000000	-18.310637	21.466113	13.318423	147.589325	-47.489916	66.809774	81.929352	89.152463	-24.643949	0.926485	151.729402	-11.649717	84.021144	43.260390	79.652363	-9.843441	-8.736253
3.716667	6.420113	7.898834	90.669560	0.141155	0.671325	0.802880	-6.745791	3.419363	-1.073034	6.766485	0.118097	28.066859	10.596587	0.000000	-9.518704	-2.102267	6.071781	1.497097	0.026129	23.236978	-16.539746	0.000000	0.295212	-0.028361	-3.563644	0.548238	-0.037720	-3.786371	0.485003	-0.068956	-3.786371	0.337397	-0.068956	-3.118188	0.274134	-0.057833	-2.895460	0.168684	-0.043931	-2.672733	2.108667	-0.320823	-19.819917	0.000000	0.000000	-17.822278	21.884861	12.456979	147.972359	-47.894334	66.994965	82.295782	89.143706	-24.789450	1.101171	151.875639	-11.127753	84.542712	41.710772	77.685822	-9.494146	-8.403953
